<?xml version="1.0" encoding="UTF-8" standalone="no"?>
<!-- Generator: Adobe Illustrator 26.0.3, SVG Export Plug-In . SVG Version: 6.00 Build 0)  -->

<svg
   version="1.1"
   id="Vrstva_2_00000150809641478881332780000003601397164009466516_"
   x="0px"
   y="0px"
   viewBox="0 0 500 500"
   style="enable-background:new 0 0 500 500;"
   xml:space="preserve"
   sodipodi:docname="Geognosis logo_zkuska.svg"
   inkscape:version="1.4 (86a8ad7, 2024-10-11)"
   xmlns:inkscape="http://www.inkscape.org/namespaces/inkscape"
   xmlns:sodipodi="http://sodipodi.sourceforge.net/DTD/sodipodi-0.dtd"
   xmlns="http://www.w3.org/2000/svg"
   xmlns:svg="http://www.w3.org/2000/svg"><defs
   id="defs3" /><sodipodi:namedview
   id="namedview3"
   pagecolor="#ffffff"
   bordercolor="#000000"
   borderopacity="0.25"
   inkscape:showpageshadow="2"
   inkscape:pageopacity="0.0"
   inkscape:pagecheckerboard="0"
   inkscape:deskcolor="#d1d1d1"
   inkscape:zoom="1.546"
   inkscape:cx="250"
   inkscape:cy="268.11125"
   inkscape:window-width="1920"
   inkscape:window-height="991"
   inkscape:window-x="-9"
   inkscape:window-y="-9"
   inkscape:window-maximized="1"
   inkscape:current-layer="Vrstva_2_00000150809641478881332780000003601397164009466516_" />
<style
   type="text/css"
   id="style1">
	.st0{fill:#FFF15C;}
</style>
<g
   id="g3"
   transform="matrix(1.6995156,0,0,1.6995156,-171.17721,-174.23206)">
	<polygon
   class="st0"
   points="234.2,375.6 214.7,375.4 215.1,396.1 286.1,396.1 286.1,376.2 261.8,375.8 260.8,338.2 157.1,277.9 157.1,303.4 239.3,350.4 240.5,389.3 "
   id="polygon1" />
	<polygon
   class="st0"
   points="291.9,308.8 342.9,279.1 342.9,303.6 291.9,332.9 157.9,255.4 157.9,153.7 194.1,215.1 179.3,215.1 178.3,243.3 "
   id="polygon2" />
	<polygon
   class="st0"
   points="260.5,239.6 292.7,258.5 322.3,241.6 322.3,212.6 307.7,212.6 342.9,153.7 342.9,254.1 292.7,282.7 239.1,252.1 239.3,153 221.6,152.8 250.4,103.9 277.6,152.8 261.3,152.9 "
   id="polygon3" />
</g>
</svg>
