<?xml version="1.0" encoding="UTF-8" standalone="no"?>
<!-- Created with Inkscape (http://www.inkscape.org/) -->

<svg
   width="341.93307mm"
   height="89.693573mm"
   viewBox="0 0 341.93307 89.693573"
   version="1.1"
   id="svg1"
   xml:space="preserve"
   inkscape:version="1.4 (86a8ad7, 2024-10-11)"
   sodipodi:docname="výkres.svg"
   xmlns:inkscape="http://www.inkscape.org/namespaces/inkscape"
   xmlns:sodipodi="http://sodipodi.sourceforge.net/DTD/sodipodi-0.dtd"
   xmlns="http://www.w3.org/2000/svg"
   xmlns:svg="http://www.w3.org/2000/svg"><sodipodi:namedview
     id="namedview1"
     pagecolor="#ffffff"
     bordercolor="#000000"
     borderopacity="0.25"
     inkscape:showpageshadow="2"
     inkscape:pageopacity="0.0"
     inkscape:pagecheckerboard="0"
     inkscape:deskcolor="#d1d1d1"
     inkscape:document-units="mm"
     inkscape:zoom="0.34431467"
     inkscape:cx="1771.6352"
     inkscape:cy="-140.85952"
     inkscape:window-width="1920"
     inkscape:window-height="991"
     inkscape:window-x="-9"
     inkscape:window-y="-9"
     inkscape:window-maximized="1"
     inkscape:current-layer="layer1" /><defs
     id="defs1" /><g
     inkscape:label="Vrstva 1"
     inkscape:groupmode="layer"
     id="layer1"
     transform="translate(34.565973,-92.11814)"><g
       id="g7"
       transform="matrix(1.51597,0,0,1.51597,26.96019,-77.900956)" /><g
       id="g15"
       transform="translate(-9.2212162,-3.0737434)"><path
         style="fill:#fddc58;stroke-width:1.00485"
         d="m -7.2975851,181.76398 c 0,-2.92021 0,-2.92021 2.8537931,-2.92021 2.853793,0 2.853793,0 3.58173341,2.92021 0.72794042,2.92021 0.72794042,2.92021 -2.85379311,2.92021 -3.5817334,0 -3.5817334,0 -3.5817334,-2.92021 z m 7.60885179,-4.36282 c 0,-8.31408 1.28839381,-6.68398 -10.68862569,-13.52346 -1.992794,-1.13798 -4.193926,-2.40474 -4.891404,-2.81501 -2.53627,-1.4919 -6.019484,-3.50599 -7.790015,-4.50441 -1.811631,-1.0216 -1.811631,-1.0216 -1.915846,-4.55937 -0.104213,-3.53776 -0.104213,-3.53776 1.449306,-2.62406 0.854435,0.50254 2.124182,1.24127 2.82166,1.64163 0.697479,0.40036 3.550798,2.03708 6.34071,3.63715 2.789913,1.60008 6.2954195,3.64257 7.7900154,4.53887 1.4945959,0.8963 2.9620174,1.74821 3.2609365,1.89313 0.2989192,0.14493 2.58157474,1.45239 5.0725679,2.90547 4.5290784,2.64195 4.5290784,2.64195 4.6284207,8.74731 0.099342,6.10536 0.099342,6.10536 3.8950075,6.10536 3.795665,0 3.795665,0 3.795665,2.92021 0,2.92021 0,2.92021 -6.8841991,2.92021 -6.88419921,0 -6.88419921,0 -6.88419921,-7.28303 z m 62.90566431,-8.9704 c -0.322049,-0.32446 -0.585545,-0.72083 -0.585545,-0.88084 0,-0.47856 -3.274163,-3.62725 -4.019661,-3.86562 -0.704167,-0.22516 -0.987126,-1.63172 -0.328254,-1.63172 0.19928,0 0.362257,-0.28746 0.362174,-0.6388 -1.39e-4,-0.58203 -0.520692,-0.6388 -5.857698,-0.6388 -4.364018,0 -5.896017,-0.11634 -6.008426,-0.45628 -0.08298,-0.25095 -0.316459,-0.45628 -0.518835,-0.45628 -1.857544,0 -6.620435,-4.27936 -7.414448,-6.66172 -0.117097,-0.35135 -0.355007,-0.6388 -0.528689,-0.6388 -0.173682,0 -0.420075,-0.65705 -0.547539,-1.4601 -0.127464,-0.80306 -0.366574,-1.46011 -0.531353,-1.46011 -0.16478,0 -0.406995,-0.57673 -0.538256,-1.28163 -0.13126,-0.70489 -0.383218,-1.37162 -0.559907,-1.48164 -0.439302,-0.27353 -0.407201,-2.2505 0.04108,-2.52961 0.199279,-0.12408 0.362327,-0.49038 0.362327,-0.81401 0,-0.71222 2.185335,-5.34178 2.602409,-5.51311 0.162911,-0.0669 0.296201,-0.31806 0.296201,-0.55808 0,-0.55448 4.408911,-4.97814 4.96154,-4.97814 0.227132,0 0.467315,-0.1232 0.533742,-0.27377 0.228869,-0.5188 2.408385,-1.55136 3.274568,-1.55136 0.477416,0 1.043577,-0.17686 1.258137,-0.39302 0.52845,-0.53239 6.75246,-0.54172 6.928261,-0.0104 0.07341,0.22187 0.517882,0.40341 0.987713,0.40341 0.469831,0 0.955007,0.16426 1.078169,0.36503 0.12316,0.20075 0.78497,0.36501 1.470688,0.36501 0.685717,0 1.246759,-0.16426 1.246759,-0.36501 0,-0.55088 1.300723,-0.43769 1.789577,0.15573 0.565418,0.68636 0.616935,7.97925 0.0577,8.16705 -0.218881,0.0735 -0.397966,0.36635 -0.397966,0.65077 0,1.03812 -0.698321,0.48219 -0.925277,-0.73661 -0.128404,-0.68955 -0.539565,-1.53282 -0.91369,-1.87391 -0.374125,-0.34111 -0.592927,-0.7625 -0.486226,-0.93643 0.106702,-0.17394 0.02133,-0.31625 -0.189707,-0.31625 -0.21104,0 -0.38371,-0.21305 -0.38371,-0.47345 0,-0.2604 -0.6183,-1.08172 -1.374,-1.82514 -1.374,-1.35166 -1.374,-1.35166 -4.710242,-1.35166 -1.98261,0 -3.336241,0.1481 -3.336241,0.36502 0,0.20076 -0.194887,0.36503 -0.433081,0.36503 -0.579085,0 -2.465529,1.84437 -2.465529,2.41054 0,0.24686 -0.173565,0.50711 -0.3857,0.57836 -0.212135,0.0712 -0.478173,0.82409 -0.591197,1.67303 -0.113023,0.84893 -0.347075,1.54351 -0.520115,1.54351 -0.173041,0 -0.314619,2.62819 -0.314619,5.84041 0,3.21223 0.142302,5.84043 0.316227,5.84043 0.173926,0 0.396232,0.83881 0.494014,1.86404 0.09778,1.02521 0.334227,1.96972 0.525434,2.09889 0.338176,0.22846 0.925124,1.40505 0.988153,1.98084 0.03238,0.29579 1.173954,1.0187 2.748739,1.74067 1.073877,0.49232 5.174806,0.21964 5.36552,-0.35677 0.07137,-0.2157 0.491182,-0.39218 0.932918,-0.39218 1.398105,0 1.672741,-0.67934 1.672741,-4.13769 0,-2.90516 -0.0891,-3.34792 -0.815235,-4.05111 -1.30361,-1.26243 -2.497745,-3.11189 -2.259742,-3.49986 0.125074,-0.20388 2.282414,-0.3572 5.025996,-0.3572 4.619729,0 4.83901,0.0345 5.632634,0.88554 0.911671,0.97766 0.759799,1.54511 -0.547548,2.04588 -0.86468,0.3312 -0.86468,0.3312 -0.961202,10.07669 -0.09925,10.02091 -0.212625,10.73198 -1.50377,9.43122 z m 104.430899,-0.005 c -1.82744,-2.26642 -3.86827,-4.31672 -4.56086,-4.58201 -0.80612,-0.30875 -1.18144,-1.79066 -0.45353,-1.79066 0.19928,0 0.36232,-0.28746 0.36232,-0.6388 0,-0.58045 -0.50466,-0.6388 -5.52547,-0.6388 -5.40541,0 -5.57271,-0.0237 -7.69943,-1.08912 -3.1416,-1.5739 -5.6829,-4.08808 -6.55512,-6.48516 -0.12784,-0.35134 -0.37455,-0.6388 -0.54822,-0.6388 -0.17369,0 -0.42007,-0.65704 -0.54755,-1.4601 -0.12746,-0.80306 -0.36657,-1.46011 -0.53135,-1.46011 -0.16477,0 -0.40699,-0.57673 -0.53825,-1.28162 -0.13126,-0.70489 -0.38322,-1.37163 -0.55991,-1.48165 -0.44347,-0.27613 -0.40658,-2.71212 0.041,-2.71212 0.19929,0 0.36233,-0.27022 0.36233,-0.60049 0,-0.33027 0.57564,-1.80621 1.2792,-3.27988 0.70356,-1.47366 1.27355,-2.76462 1.26663,-2.8688 -0.0262,-0.39533 4.81003,-4.93166 5.25774,-4.93166 0.25825,0 0.5239,-0.1232 0.59032,-0.27377 0.23492,-0.53248 2.41908,-1.55136 3.32566,-1.55136 0.5055,0 1.01987,-0.16427 1.14303,-0.36503 0.1237,-0.20164 1.75501,-0.36502 3.64466,-0.36502 2.03892,0 3.42071,0.14745 3.42071,0.36502 0,0.20076 0.39799,0.36503 0.88443,0.36503 0.48644,0 0.9852,0.16426 1.10836,0.36503 0.12317,0.20076 0.69383,0.36502 1.26815,0.36502 0.57431,0 1.14498,-0.16426 1.26813,-0.36502 0.31765,-0.51779 1.46972,-0.45246 1.93273,0.10958 0.54107,0.65681 0.63416,8.03239 0.10363,8.21055 -0.22323,0.0749 -0.40589,0.369 -0.40589,0.65343 0,0.99238 -0.66909,0.50775 -0.92393,-0.66922 -0.14127,-0.65249 -0.64336,-1.65066 -1.11577,-2.21817 -0.4724,-0.5675 -0.8589,-1.23228 -0.8589,-1.47727 0,-0.245 -0.61831,-1.05371 -1.37401,-1.79713 -1.374,-1.35167 -1.374,-1.35167 -4.64502,-1.35167 -3.20863,0 -3.29901,0.0241 -4.73858,1.26553 -1.60611,1.38502 -2.64846,3.24319 -2.64846,4.72131 0,0.52176 -0.16306,0.94866 -0.36233,0.94866 -0.22646,0 -0.36233,2.19015 -0.36233,5.84041 0,3.21223 0.1423,5.84042 0.31623,5.84042 0.17392,0 0.39623,0.83881 0.49401,1.86404 0.0978,1.02522 0.34113,1.96972 0.54075,2.0989 0.19964,0.12917 0.48798,0.63785 0.64077,1.13039 0.33948,1.09438 0.71546,1.46391 2.39577,2.35468 1.04877,0.55597 1.76453,0.65154 3.61427,0.48256 1.26859,-0.11589 2.36492,-0.38719 2.43629,-0.6029 0.0714,-0.21569 0.45391,-0.39217 0.8501,-0.39217 1.39854,0 1.75555,-0.85336 1.75555,-4.19625 0,-3.07556 -0.029,-3.18199 -1.17755,-4.31675 -1.40873,-1.39184 -2.18802,-2.70197 -1.89311,-3.18269 0.11967,-0.19508 2.34383,-0.35018 5.02168,-0.35018 4.65346,0 4.83391,0.029 5.65427,0.90874 0.81676,0.87589 0.82403,0.93476 0.20118,1.62813 -0.35542,0.39567 -0.83061,0.68484 -1.05599,0.64262 -0.29293,-0.0549 -0.46142,2.72477 -0.59093,9.74882 -0.1839,9.97416 -0.33933,10.95428 -1.50748,9.50551 z M 15.423349,163.87235 c -0.502972,-0.39858 -0.981791,-0.7247 -1.064044,-0.7247 -0.08225,0 -2.176144,-1.17273 -4.6530919,-2.60605 -2.4769479,-1.43333 -4.9926822,-2.88797 -5.5905205,-3.23256 -0.5978384,-0.34457 -2.364064,-1.38939 -3.92494582,-2.32179 -1.56088178,-0.93242 -2.88778028,-1.6953 -2.94866308,-1.6953 -0.096408,0 -4.9096626,-2.7963 -18.7544737,-10.89559 -3.52618,-2.06284 -3.52618,-2.06284 -3.532682,-17.36351 -0.0036,-8.41537 0.05093,-15.23223 0.121108,-15.14858 0.07019,0.0836 1.314865,2.20537 2.765956,4.71492 1.451093,2.50956 2.923481,5.05561 3.271975,5.6579 4.307222,7.44408 4.167445,6.91838 1.892583,7.11801 -2.079739,0.18251 -2.079739,0.18251 -2.18101,4.81832 -0.110405,5.0539 -0.586653,4.49054 7.891285,9.33465 3.2423661,1.85262 18.6831542,10.78771 21.92074,12.68483 4.544113,2.66271 5.345837,3.08995 5.797221,3.08937 0.19928,-2.6e-4 1.666701,-0.75786 3.260936,-1.68357 1.594236,-0.9257 3.550798,-2.05736 4.347916,-2.51481 0.797118,-0.45743 2.88182,-1.66588 4.632672,-2.68543 3.183368,-1.85374 3.183368,-1.85374 3.079773,1.64546 -0.103594,3.4992 -0.103594,3.4992 -6.58052,7.29146 -3.56231,2.08575 -6.553506,3.79227 -6.647104,3.79227 -0.0936,0 -0.624776,0.32612 -1.180397,0.7247 -1.007733,0.72292 -1.012471,0.72292 -1.924713,0 z m 54.618745,-3.30756 c -0.135105,-0.22024 0.261823,-0.9279 0.882065,-1.5726 0.620241,-0.6447 1.127711,-1.34422 1.127711,-1.5545 0,-0.21028 0.326093,-0.67964 0.724652,-1.04302 0.599588,-0.54667 0.724653,-1.12426 0.724653,-3.34677 0,-2.82229 -0.267646,-3.56763 -1.902213,-5.29725 -0.548019,-0.57989 -0.996397,-1.35505 -0.996397,-1.72258 0,-0.55197 1.011755,-2.21476 1.79914,-2.95685 1.086588,-1.02408 1.554772,-5.60073 0.664678,-6.49746 -0.33817,-0.3407 -0.33817,-0.43804 0,-0.43804 0.731483,0 0.484972,-0.91947 -0.471024,-1.75688 -0.498199,-0.43641 -0.905816,-0.96113 -0.905816,-1.16605 0,-0.20493 -0.529902,-0.85208 -1.17756,-1.43812 -0.843031,-0.76282 -1.06703,-1.17862 -0.788484,-1.46366 0.321064,-0.32853 12.662045,-0.50214 27.419465,-0.38573 0.556541,0.004 0.634072,0.4067 0.634072,3.29024 0,1.80687 -0.144074,3.28523 -0.320166,3.28523 -0.176091,0 -0.945942,-0.69811 -1.710779,-1.55136 -1.390613,-1.55135 -1.390613,-1.55135 -6.446003,-1.63273 -3.494295,-0.0563 -5.139252,-0.21807 -5.326969,-0.52407 -0.328424,-0.53536 -1.413787,0.22063 -1.413787,0.98474 0,0.25984 -0.203809,0.55575 -0.452908,0.65757 -0.352122,0.14394 -0.343513,0.26241 0.03868,0.53233 0.343542,0.24263 0.370822,0.42238 0.09058,0.59688 -0.454734,0.28313 -0.574635,7.50711 -0.124601,7.50711 0.152025,0 0.437357,0.36958 0.634072,0.82131 0.31156,0.71544 0.668879,0.83513 2.772082,0.92853 2.381358,0.10575 2.439197,0.0857 4.22369,-1.46012 0.995098,-0.86201 1.913644,-1.97796 2.041214,-2.47988 0.385094,-1.51511 1.14213,-2.28492 1.982692,-2.01614 0.711602,0.22752 0.754981,0.52796 0.821714,5.691 0.03875,2.99794 0.07951,5.98465 0.09058,6.63713 0.01815,1.06954 -0.083,1.18633 -1.027361,1.18633 -0.672001,0 -1.191527,-0.26169 -1.449305,-0.73005 -0.220999,-0.40153 -0.538027,-0.83054 -0.704506,-0.95338 -0.16648,-0.12282 -0.309525,-0.36921 -0.317876,-0.54753 -0.04892,-1.04469 -0.79524,-2.0392 -1.825136,-2.43209 -0.348739,-0.13304 -0.63407,-0.49344 -0.63407,-0.80088 0,-0.46471 -0.611133,-0.55899 -3.623263,-0.55899 -3.623263,0 -3.623263,0 -3.623263,5.94992 0,4.14102 0.132186,6.08309 0.434792,6.38796 0.305202,0.30747 2.333716,0.43802 6.805994,0.43802 6.371203,0 6.371203,0 8.339244,-2.00764 1.082421,-1.1042 2.127735,-2.00764 2.322917,-2.00764 0.195183,0 0.818286,-0.44728 1.384666,-0.99395 1.02979,-0.99395 1.02979,-0.99395 0.92564,2.82894 -0.10415,3.82291 -0.10415,3.82291 -15.751005,3.91803 -11.056531,0.0672 -15.718926,-0.0224 -15.892508,-0.30531 z m 103.914036,0.15095 c -0.6541,-0.2659 -0.57589,-1.9484 0.0906,-1.9484 0.29893,0 0.5435,-0.12691 0.5435,-0.28201 0,-0.15511 0.57066,-0.59164 1.26813,-0.97005 1.26815,-0.68803 1.26815,-0.68803 1.26815,-10.9824 0,-10.29437 0,-10.29437 -1.53485,-12.07963 -0.84416,-0.9819 -1.70015,-1.90379 -1.90221,-2.04865 -0.24574,-0.17618 -0.23454,-0.4783 0.0338,-0.91256 0.34717,-0.56176 1.06485,-0.66285 5.32933,-0.75065 4.92814,-0.10146 4.92814,-0.10146 5.57434,0.91257 0.86412,1.35593 0.99417,1.53184 2.26978,3.06985 0.60477,0.72918 1.09958,1.44952 1.09958,1.60076 0,0.15124 0.36685,0.63293 0.81523,1.07041 0.90154,0.87965 1.55547,1.82341 2.0465,2.95355 0.17804,0.40978 0.58527,0.96374 0.90495,1.23103 0.31968,0.26728 0.58123,0.67326 0.58123,0.90218 0,0.22891 0.40762,0.72459 0.90582,1.10151 0.4982,0.37692 0.90581,0.88006 0.90581,1.11809 0,0.23802 0.40762,0.81856 0.90582,1.29009 0.4982,0.47152 0.90582,1.05749 0.90582,1.30217 0,0.65034 1.09839,0.96783 1.67639,0.48456 0.62195,-0.52002 0.65362,-2.39251 0.0446,-2.64006 -0.36233,-0.14729 -0.36233,-0.18988 0,-0.21293 0.52956,-0.0337 0.66555,-6.59929 0.13667,-6.59929 -0.17391,0 -0.39406,-0.81611 -0.4892,-1.81359 -0.1718,-1.80135 -1.21761,-3.25386 -2.36492,-3.28463 -0.2491,-0.007 -0.45291,-0.17641 -0.45291,-0.37717 0,-0.20077 -0.24457,-0.36502 -0.54349,-0.36502 -0.72359,0 -0.69916,-1.32182 0.0296,-1.60357 0.7463,-0.28851 9.70188,-0.28851 10.44819,0 0.79935,0.30903 0.71663,0.77439 -0.30766,1.73074 -0.48443,0.4523 -0.99125,1.26577 -1.12626,1.8077 -0.13501,0.54193 -0.39084,0.98534 -0.56852,0.98534 -0.18274,0 -0.32305,5.30176 -0.32305,12.20682 0,7.87475 -0.13068,12.2882 -0.36823,12.43612 -0.20254,0.12609 -0.27444,0.38218 -0.15978,0.56907 0.11966,0.19507 -0.70273,0.3398 -1.93073,0.3398 -2.10875,0 -3.33848,-0.63487 -3.33848,-1.72356 0,-0.21366 -0.24457,-0.48303 -0.54348,-0.5986 -0.29893,-0.11555 -0.5435,-0.43302 -0.5435,-0.70547 0,-0.27245 -0.40761,-0.88115 -0.90581,-1.35268 -0.4982,-0.47151 -0.90581,-1.00078 -0.90581,-1.17613 0,-0.17535 -0.40497,-0.69694 -0.89993,-1.15906 -0.49495,-0.46213 -0.82005,-0.92071 -0.72243,-1.01906 0.0976,-0.0983 -0.1496,-0.47703 -0.54938,-0.84152 -0.39978,-0.36449 -0.72688,-0.84707 -0.72688,-1.07239 0,-0.22533 -0.45718,-0.81585 -1.01597,-1.31227 -0.55878,-0.49643 -1.13584,-1.14899 -1.28234,-1.45014 -0.59171,-1.21622 -1.21143,-2.1381 -2.59309,-3.85749 -1.40268,-1.74553 -1.66094,-2.11247 -2.99957,-4.26203 -0.34304,-0.55083 -0.92524,-1.00255 -1.29381,-1.00382 -0.63566,-0.002 -0.6624,0.39642 -0.52018,7.75449 0.12346,6.38796 0.2573,7.95005 0.75845,8.85188 0.3347,0.6023 0.60955,1.23001 0.61078,1.39493 0.004,0.5345 0.97773,1.30067 1.97286,1.5523 0.65256,0.165 0.90467,0.42023 0.76842,0.77792 -0.11152,0.29281 -0.20276,0.68319 -0.20276,0.86753 0,0.34371 -9.95138,0.42996 -10.77922,0.0934 z m -60.05557,-0.75231 c -1.35051,-0.68533 -5.97838,-5.20637 -5.97838,-5.84038 0,-0.25634 -0.15111,-0.46607 -0.3358,-0.46607 -0.50592,0 -1.47584,-2.16653 -1.47584,-3.29663 0,-0.54686 -0.24025,-1.19518 -0.53391,-1.4407 -0.29364,-0.24552 -0.63821,-1.00662 -0.76572,-1.69134 -0.1275,-0.68472 -0.37639,-1.33496 -0.55308,-1.44497 -0.64246,-0.40003 -0.29676,-1.48924 0.75039,-2.36422 0.90613,-0.75715 1.074,-1.16322 1.08698,-2.62931 0.008,-0.95363 0.16071,-1.73388 0.33839,-1.73388 0.17767,0 0.43351,-0.4434 0.56852,-0.98533 0.13501,-0.54194 0.64182,-1.3554 1.12626,-1.8077 0.48442,-0.45231 0.88078,-0.94441 0.88078,-1.09359 0,-0.38484 1.88413,-2.31882 2.25904,-2.31882 0.17152,0 0.68716,-0.40798 1.14586,-0.90662 0.45872,-0.49865 0.9139,-0.82617 1.01152,-0.72782 0.0976,0.0983 0.4735,-0.15071 0.8353,-0.55347 0.61167,-0.68093 1.11138,-0.7323 7.12353,-0.7323 4.06893,0 6.46572,0.13531 6.46572,0.36503 0,0.20076 0.24565,0.36503 0.54588,0.36503 0.30024,0 0.90031,0.41065 1.33348,0.91256 0.43318,0.50191 1.01239,0.91257 1.28713,0.91257 0.27474,0 0.40566,0.15302 0.29093,0.34004 -0.11474,0.18703 0.1087,0.56397 0.49653,0.83764 0.38784,0.27367 0.81418,0.93521 0.94743,1.47011 0.13326,0.53488 0.47086,1.16363 0.75022,1.39721 0.27937,0.23358 0.50794,0.65098 0.50794,0.92754 0,0.27656 0.16305,0.50285 0.36233,0.50285 0.19928,0 0.36233,0.37926 0.36233,0.8428 0,0.46353 0.23938,1.16165 0.53196,1.55135 0.29259,0.38971 0.53715,0.99602 0.54349,1.34736 0.0129,0.71431 1.24218,2.0989 1.86348,2.0989 0.54031,0 0.0681,2.54702 -0.61447,3.31398 -0.28206,0.31696 -0.51283,0.73592 -0.51283,0.93104 0,0.54824 -0.87604,2.31941 -1.14878,2.32261 -0.13362,0.002 -0.35038,0.49563 -0.48169,1.09792 -0.13131,0.60229 -0.37116,1.09508 -0.533,1.09508 -0.16184,0 -0.40356,0.45171 -0.53715,1.00382 -0.26612,1.09984 -4.78214,5.93167 -5.54396,5.93167 -0.2607,0 -0.56784,0.24639 -0.68255,0.54754 -0.30447,0.79936 -12.1208,0.72915 -13.71826,-0.0815 z m 8.87699,-1.74363 c 0.24808,-0.30115 0.58159,-0.54754 0.74114,-0.54754 0.89281,0 3.60677,-3.82193 3.60677,-5.07923 0,-0.22333 0.20381,-0.75383 0.45291,-1.17885 0.36233,-0.61824 0.36233,-0.80584 0,-0.93804 -0.53638,-0.1957 -0.61563,-1.5645 -0.0906,-1.5645 0.21855,0 0.36233,-1.52095 0.36233,-3.83278 0,-2.10803 -0.1423,-3.83277 -0.31623,-3.83277 -0.17392,0 -0.39623,-0.83882 -0.49401,-1.86404 -0.0978,-1.02522 -0.3226,-1.96972 -0.49959,-2.0989 -0.17698,-0.12917 -0.5638,-0.72764 -0.85958,-1.32994 -0.84606,-1.72277 -1.91745,-2.72454 -2.92128,-2.73138 -0.50816,-0.003 -1.13997,-0.21164 -1.40401,-0.46259 -0.38406,-0.36503 -0.5133,-0.36503 -0.64615,0 -0.0913,0.25095 -0.62166,0.45628 -1.17849,0.45628 -0.55682,0 -1.21539,0.24639 -1.46347,0.54753 -0.24808,0.30116 -0.67566,0.54754 -0.95018,0.54754 -0.27452,0 -0.49913,0.2464 -0.49913,0.54755 0,0.30114 -0.16112,0.54754 -0.35804,0.54754 -0.19693,0 -0.46234,0.65704 -0.5898,1.4601 -0.12747,0.80305 -0.35612,1.4601 -0.50813,1.4601 -0.29435,0 -0.6994,1.88363 -0.87262,4.05783 -0.0579,0.72608 -0.18432,1.46526 -0.28108,1.64262 -0.29647,0.54342 -0.33964,3.7773 -0.0566,4.23869 0.14656,0.23889 0.22447,1.12242 0.17313,1.96341 -0.0514,0.84099 0.081,1.63762 0.29409,1.7703 0.21308,0.13267 0.38743,0.64219 0.38743,1.13225 0,0.49006 0.16304,0.89102 0.36231,0.89102 0.19929,0 0.36233,0.19911 0.36233,0.44246 0,0.68517 2.97212,3.57283 3.67732,3.57283 0.34531,0 0.7286,0.16426 0.85176,0.36502 0.34298,0.55909 2.20982,0.4337 2.71745,-0.18251 z m -1.81163,-7.118 c 0,-0.20077 -0.24458,-0.36503 -0.54349,-0.36503 -0.29892,0 -0.54349,-0.18169 -0.54349,-0.40375 0,-0.22206 -0.3951,-0.71685 -0.878,-1.09953 -0.4829,-0.38268 -0.98499,-1.18656 -1.11577,-1.78641 -0.13077,-0.59984 -0.38786,-1.09062 -0.5713,-1.09062 -0.56725,0 -0.37697,-2.19629 0.20994,-2.42318 0.29893,-0.11557 0.5435,-0.40473 0.5435,-0.6426 0,-0.4577 2.92574,-3.50469 3.36523,-3.50469 0.14191,0 0.25802,0.24639 0.25802,0.54753 0,0.30115 0.15207,0.54754 0.33792,0.54754 0.18585,0 0.44895,0.35246 0.58466,0.78324 0.13572,0.43079 0.6729,1.15253 1.19375,1.60388 1.16595,1.01039 1.36572,3.64288 0.32115,4.23181 -0.34421,0.19406 -0.62584,0.56244 -0.62584,0.81862 0,0.25617 -0.40761,0.85156 -0.90582,1.32308 -0.4982,0.47152 -0.90582,1.07507 -0.90582,1.34121 0,0.26616 -0.16304,0.48392 -0.36231,0.48392 -0.19929,0 -0.36233,-0.16426 -0.36233,-0.36502 z m 96.37879,9.16521 c 0,-0.179 -0.44838,-0.43556 -0.9964,-0.57015 -1.08256,-0.26586 -5.8878,-4.81484 -5.8878,-5.57381 0,-0.25634 -0.1511,-0.46607 -0.33579,-0.46607 -0.50975,0 -1.47584,-2.1702 -1.47584,-3.31524 0,-0.55712 -0.25455,-1.26938 -0.56567,-1.58281 -0.31112,-0.31344 -0.65855,-1.14648 -0.77206,-1.85121 -0.11352,-0.70472 -0.34811,-1.28132 -0.52132,-1.28132 -0.70023,0 -0.24645,-1.19923 0.82786,-2.18776 0.86978,-0.80035 1.13331,-1.34041 1.1032,-2.26084 -0.0412,-1.2609 0.62967,-3.21694 1.10341,-3.21694 0.15064,0 0.27388,-0.22094 0.27388,-0.49097 0,-0.27003 0.3261,-0.78827 0.72465,-1.15165 0.39856,-0.36338 0.72466,-0.83157 0.72466,-1.04042 0,-0.46966 1.82862,-2.42733 2.26732,-2.42733 0.17606,0 1.09357,-0.65705 2.03891,-1.46011 1.71878,-1.4601 1.71878,-1.4601 7.88993,-1.4601 6.52531,0 7.69022,0.23906 8.80816,1.80753 0.29309,0.41121 0.74148,0.74766 0.99641,0.74766 0.25492,0 0.4635,0.25155 0.4635,0.559 0,0.30744 0.2346,0.64969 0.52135,0.76054 0.28674,0.11085 0.62749,0.68844 0.75723,1.28354 0.12974,0.59509 0.55144,1.27948 0.9371,1.52087 0.39899,0.24971 0.79532,1.02886 0.91955,1.80772 0.12007,0.75287 0.34757,1.36885 0.50555,1.36885 0.15797,0 0.39931,0.53384 0.5363,1.18633 0.26896,1.28112 1.4698,2.82895 2.19472,2.82895 0.24655,0 0.40581,0.20533 0.3539,0.45629 -0.15364,0.74278 -0.59422,1.8772 -0.95693,2.46392 -0.18617,0.30115 -0.43644,0.79393 -0.55614,1.09508 -0.11971,0.30114 -0.44476,1.06515 -0.72235,1.69778 -0.27758,0.63264 -0.5047,1.33075 -0.5047,1.55136 0,0.22062 -0.14403,0.40112 -0.32007,0.40112 -0.31086,0 -0.88501,1.36497 -0.80609,1.91639 0.0215,0.15057 -0.12386,0.27377 -0.32314,0.27377 -0.19928,0 -0.36232,0.20973 -0.36232,0.46607 0,0.56972 -4.64281,5.18703 -5.52548,5.49513 -0.34874,0.12173 -0.63407,0.39074 -0.63407,0.59781 0,0.24428 -2.22649,0.37648 -6.34072,0.37648 -3.48738,0 -6.3407,-0.14645 -6.3407,-0.32546 z m 7.97118,-2.04721 c 0.24808,-0.30115 0.59963,-0.54754 0.78123,-0.54754 0.974,0 3.56668,-3.82123 3.56668,-5.25679 0,-0.32099 0.16305,-0.58363 0.36233,-0.58363 0.19928,0 0.36232,-0.32852 0.36232,-0.73004 0,-0.40153 -0.16304,-0.73006 -0.36232,-0.73006 -0.19928,0 -0.36233,-0.32853 -0.36233,-0.73005 0,-0.40153 0.16305,-0.73005 0.36233,-0.73005 0.44953,0 0.49587,-7.53932 0.0481,-7.81814 -0.17285,-0.10763 -0.39966,-0.95894 -0.50404,-1.89182 -0.10437,-0.93288 -0.34859,-1.79902 -0.54271,-1.92476 -0.19412,-0.12575 -0.47477,-0.63928 -0.62365,-1.1412 -0.41895,-1.41228 -2.01104,-2.9202 -3.08323,-2.9202 -0.52069,0 -1.16276,-0.20533 -1.4268,-0.45628 -0.38407,-0.36503 -0.5133,-0.36503 -0.64615,0 -0.0913,0.25095 -0.62166,0.45628 -1.17849,0.45628 -0.55683,0 -1.21539,0.24639 -1.46347,0.54753 -0.24808,0.30116 -0.63491,0.55159 -0.8596,0.55653 -0.50318,0.0111 -1.67669,2.31461 -1.67669,3.29125 0,0.39328 -0.15007,0.71505 -0.33348,0.71505 -0.18343,0 -0.43572,1.10877 -0.56067,2.46393 -0.12494,1.35515 -0.39751,2.7734 -0.60572,3.15164 -0.28082,0.51018 -0.25301,0.76787 0.10775,0.99824 0.36181,0.23101 0.37036,0.31194 0.0333,0.3161 -0.28591,0.003 -0.4529,0.54394 -0.4529,1.46569 0,0.80306 0.13951,1.46011 0.31003,1.46011 0.17051,0 0.40535,1.26976 0.52185,2.82168 0.11651,1.55193 0.38461,2.87971 0.59579,2.95063 0.21118,0.0709 0.38396,0.31436 0.38396,0.54098 0,0.66247 2.98962,3.54241 3.67732,3.54241 0.3453,0 0.7286,0.16426 0.85176,0.36502 0.34298,0.55909 2.20982,0.4337 2.71745,-0.18251 z m -1.81164,-7.118 c 0,-0.20077 -0.24457,-0.36503 -0.54348,-0.36503 -0.29893,0 -0.54349,-0.17211 -0.54349,-0.38246 0,-0.21035 -0.39636,-0.75251 -0.88079,-1.20481 -0.48443,-0.45231 -0.99124,-1.26577 -1.12625,-1.80771 -0.13502,-0.54194 -0.39085,-0.98533 -0.56852,-0.98533 -0.55664,0 -0.35741,-2.09877 0.22043,-2.32216 0.29892,-0.11557 0.5435,-0.42746 0.5435,-0.69311 0,-0.49361 2.89799,-3.5552 3.36522,-3.5552 0.14192,0 0.25804,0.22882 0.25804,0.50848 0,0.27967 0.24457,0.60303 0.54349,0.7186 0.29891,0.11556 0.54349,0.43302 0.54349,0.70547 0,0.27245 0.40761,0.88116 0.90581,1.35268 0.4982,0.47152 0.90582,1.07507 0.90582,1.34122 0,0.26615 0.14862,0.48391 0.33026,0.48391 0.76971,0 -0.12634,1.99651 -1.83147,4.08078 -0.76858,0.93946 -1.3974,1.88396 -1.3974,2.0989 0,0.21493 -0.16305,0.39079 -0.36233,0.39079 -0.19928,0 -0.36233,-0.16426 -0.36233,-0.36502 z m 21.61152,8.81973 c -0.47545,-0.52928 -0.59659,-1.45509 -0.59659,-4.55942 0,-2.35351 -0.14341,-3.89529 -0.36233,-3.89529 -0.19928,0 -0.36233,-0.41065 -0.36233,-0.91257 0,-0.56782 0.20532,-0.91256 0.54349,-0.91256 0.29892,0 0.54349,-0.18437 0.54349,-0.40972 0,-0.28308 0.16799,-0.26926 0.5435,0.0447 0.29891,0.24994 0.54348,0.67253 0.54348,0.93912 0,0.26659 0.22067,0.61607 0.49036,0.77661 0.2697,0.16056 0.55504,0.48429 0.63407,0.71942 0.29323,0.8723 4.75524,5.2304 5.35509,5.2304 0.34215,0 0.77698,0.14953 0.96629,0.33229 0.18931,0.18275 1.42717,0.43347 2.75079,0.55714 2.14755,0.20065 2.51833,0.13542 3.44495,-0.60606 0.57113,-0.457 1.3632,-1.01307 1.76019,-1.23572 0.39697,-0.22264 0.73586,-0.55117 0.75307,-0.73005 0.0172,-0.17889 0.15774,-0.6148 0.31229,-0.96869 0.16596,-0.38005 0.0979,-0.86568 -0.16624,-1.18633 -0.24598,-0.29859 -0.30665,-0.54289 -0.13482,-0.54289 0.6235,0 -1.63415,-1.80141 -2.54691,-2.0322 -0.51574,-0.1304 -0.93771,-0.3644 -0.93771,-0.51998 0,-0.28284 -1.38927,-0.84705 -1.90221,-0.77254 -0.14946,0.0217 -0.27174,-0.12478 -0.27174,-0.32554 0,-0.20077 -0.40762,-0.36503 -0.90582,-0.36503 -0.4982,0 -0.90581,-0.16232 -0.90581,-0.36071 0,-0.1984 -0.6522,-0.46578 -1.44931,-0.5942 -0.79712,-0.12841 -1.44931,-0.36369 -1.44931,-0.52285 0,-0.15914 -0.52455,-0.40543 -1.16567,-0.5473 -0.64111,-0.14186 -1.41558,-0.38931 -1.72105,-0.54989 -0.30546,-0.16058 -0.84055,-0.38087 -1.18909,-0.48954 -0.64197,-0.20013 -2.44606,-3.71101 -2.44606,-4.76018 0,-0.31401 -0.16305,-0.57092 -0.36233,-0.57092 -0.19928,0 -0.36232,-0.49279 -0.36232,-1.09509 0,-0.60229 0.16304,-1.09507 0.36232,-1.09507 0.19928,0 0.36233,-0.45416 0.36233,-1.00923 0,-1.67774 2.70702,-5.85348 3.88107,-5.98678 0.6286,-0.0714 1.38657,-0.45481 1.63166,-0.82543 0.37917,-0.57336 11.37336,-0.49946 11.94885,0.0803 0.52764,0.53157 3.05766,0.58826 3.37219,0.0755 0.12315,-0.20077 0.45887,-0.36503 0.74603,-0.36503 0.43058,0 0.5221,0.92779 0.5221,5.29288 0,2.91109 -0.14308,5.29287 -0.31795,5.29287 -0.4843,0 -1.04585,-0.8073 -1.31609,-1.892 -0.13364,-0.53646 -0.47284,-1.06423 -0.75377,-1.17285 -0.28094,-0.1086 -0.5108,-0.40173 -0.5108,-0.65138 0,-0.60557 -2.92324,-3.58428 -3.51754,-3.58428 -0.25742,0 -0.46932,-0.1232 -0.47087,-0.27377 -0.006,-0.55999 -2.01223,-1.18634 -3.80031,-1.18634 -1.66057,0 -1.98246,0.13974 -3.1887,1.38425 -1.14969,1.18616 -1.34167,1.62202 -1.34167,3.04614 0,1.64789 0.74506,2.87013 1.74958,2.87013 0.2334,0 0.42438,0.14511 0.42438,0.32246 0,0.17735 0.36685,0.4191 0.81523,0.53722 0.44838,0.11814 0.89676,0.23747 0.9964,0.26522 0.0996,0.0277 0.60594,0.35515 1.12513,0.72759 0.51917,0.37245 1.61974,0.78604 2.44569,0.9191 0.82596,0.13306 1.50175,0.36627 1.50175,0.51824 0,0.15198 0.89676,0.38919 1.99279,0.52715 1.09604,0.13796 1.9928,0.36433 1.9928,0.50304 0,0.13871 0.35351,0.41435 0.78559,0.61254 0.43208,0.19817 0.96198,0.68191 1.17757,1.07496 0.21557,0.39304 0.59577,0.93863 0.84487,1.21241 0.2491,0.27377 0.45291,0.71874 0.45291,0.98882 0,0.27007 0.2038,0.55948 0.4529,0.64313 0.31675,0.10638 0.45291,1.12144 0.45291,3.3765 0,2.25505 -0.13616,3.27012 -0.45291,3.37649 -0.2491,0.0836 -0.4529,0.3731 -0.4529,0.64322 0,0.94003 -2.74542,3.40005 -5.38574,4.82585 -0.98935,0.53426 -11.28128,0.66631 -11.28128,0.14474 0,-0.17483 -1.17466,-0.43447 -2.61034,-0.57699 -2.15916,-0.21435 -2.68231,-0.16 -3.02667,0.31445 -0.37451,0.51601 -0.47624,0.50691 -1.01292,-0.0906 z m 29.40193,0.0984 c 0.44624,-0.31488 0.72435,-0.71429 0.61805,-0.88759 -0.10631,-0.17328 0.1741,-0.57431 0.62312,-0.89116 0.77089,-0.54398 0.82395,-0.86993 0.95167,-5.84568 0.13266,-5.16912 0.11867,-5.28561 -0.73423,-6.1106 -0.47821,-0.46257 -0.84931,-1.00529 -0.82466,-1.20606 0.10825,-0.88164 0.90676,-2.37267 1.27066,-2.37267 0.59952,0 0.31496,-10.29259 -0.29017,-10.49505 -0.2491,-0.0833 -0.45291,-0.35878 -0.45291,-0.61208 0,-0.25331 -0.32608,-0.75786 -0.72464,-1.12124 -0.39856,-0.36338 -0.72489,-0.75842 -0.72517,-0.87788 -2.8e-4,-0.11946 2.3639,-0.16402 5.25374,-0.099 4.17502,0.0939 5.25537,0.019 5.25978,-0.36503 0.004,-0.35862 0.0975,-0.34204 0.36233,0.0644 0.31713,0.4867 0.39642,0.4867 0.71356,0 0.19622,-0.30115 0.35927,-0.40863 0.36232,-0.23886 0.003,0.16977 -0.33165,0.78575 -0.74377,1.36885 -0.41213,0.58309 -0.62409,1.06016 -0.47103,1.06016 0.15306,0 0.0826,0.19712 -0.15649,0.43804 -0.23914,0.24091 -0.4348,0.9704 -0.4348,1.62107 0,0.65067 -0.16304,1.28457 -0.36231,1.40865 -0.4564,0.28416 -0.47833,5.81392 -0.0264,6.66667 0.48889,0.92261 0.87482,2.05265 0.80862,2.36772 -0.0316,0.15057 0.10553,0.27377 0.3048,0.27377 0.47454,0 0.4697,1.35017 -0.006,1.6463 -0.20253,0.1261 -0.27443,0.38218 -0.15978,0.56908 0.11465,0.18689 0.0756,0.3398 -0.0868,0.3398 -0.52026,0 -1.37198,2.31384 -0.90896,2.46934 0.30074,0.10099 0.29293,0.33912 -0.0291,0.88962 -0.34727,0.59348 -0.34452,0.78649 0.013,0.91695 0.2491,0.0909 0.4529,0.52935 0.4529,0.97438 0,0.44503 -0.2038,1.02678 -0.4529,1.2928 -0.36232,0.38693 -0.36232,0.51712 0,0.65096 0.26764,0.0988 0.4529,0.81802 0.4529,1.75797 0,0.87486 0.15593,1.68774 0.34651,1.8064 0.19058,0.11866 0.26635,0.42617 0.16838,0.68336 -0.0979,0.2572 0.15374,0.77018 0.55932,1.13997 0.40559,0.36979 0.73743,0.81113 0.73743,0.98079 0,0.16964 -2.80808,0.30845 -6.24017,0.30845 -5.77111,0 -6.17918,-0.0431 -5.42883,-0.57252 z m 17.06321,-0.16436 c -0.45461,-0.48457 -0.62191,-1.67548 -0.75429,-5.36884 -0.15402,-4.29692 -0.10793,-4.78527 0.48695,-5.15954 0.55793,-0.35103 0.69134,-0.27587 0.88416,0.49807 0.12489,0.50132 0.37756,0.91149 0.56149,0.91149 0.18393,0 0.43328,0.28746 0.55412,0.6388 0.35295,1.0263 4.93213,5.56664 5.61426,5.56664 0.34232,0 0.73281,0.17997 0.86774,0.39992 0.13494,0.21997 0.79675,0.33509 1.4707,0.25582 0.67394,-0.0793 1.22534,-0.0378 1.22534,0.0921 0,0.39766 2.30391,0.32802 2.79737,-0.0845 0.25496,-0.21319 0.46357,-0.26023 0.46357,-0.10454 0,0.15568 0.30445,-0.0706 0.67657,-0.50285 0.37211,-0.43224 0.8575,-0.78591 1.07862,-0.78591 0.22113,0 0.6648,-0.40398 0.98592,-0.89772 0.68464,-1.05266 0.44568,-2.74167 -0.51131,-3.61419 -0.97149,-0.88573 -5.46015,-3.15363 -6.24172,-3.15363 -0.38408,0 -0.69832,-0.1512 -0.69832,-0.33602 0,-0.18481 -0.50013,-0.44669 -1.11138,-0.58194 -0.61127,-0.13526 -1.54879,-0.47582 -2.08338,-0.75681 -0.5346,-0.28099 -1.2477,-0.5119 -1.58468,-0.51313 -0.33698,-0.001 -0.71346,-0.16652 -0.83662,-0.36728 -0.12316,-0.20077 -0.52846,-0.36503 -0.90066,-0.36503 -0.37221,0 -0.91101,-0.45171 -1.19734,-1.00381 -0.28633,-0.55211 -0.7864,-1.49662 -1.11128,-2.09891 -0.32487,-0.60229 -0.59168,-1.37284 -0.59292,-1.71233 -0.001,-0.33949 -0.16527,-0.71877 -0.36456,-0.84285 -0.44397,-0.27644 -0.4851,-2.00764 -0.0476,-2.00764 0.17304,0 0.4071,-0.69458 0.52012,-1.54352 0.11302,-0.84893 0.37906,-1.6018 0.59119,-1.67303 0.21214,-0.0712 0.38571,-0.32889 0.38571,-0.57257 0,-0.68839 2.55737,-2.98522 4.16675,-3.74225 1.22098,-0.57433 2.302,-0.67788 6.86207,-0.65732 3.82639,0.0172 5.45465,0.15097 5.55567,0.45628 0.17465,0.52784 3.70578,0.59155 3.70578,0.0669 0,-0.20077 0.16304,-0.36503 0.36232,-0.36503 0.2249,0 0.36232,2.00765 0.36232,5.29288 0,3.11153 -0.14231,5.29288 -0.34532,5.29288 -0.18993,0 -0.62952,-0.61598 -0.97685,-1.36885 -0.34734,-0.75287 -0.84413,-1.5002 -1.10398,-1.66076 -0.25985,-0.16054 -0.47245,-0.48285 -0.47245,-0.71622 0,-0.58392 -2.93973,-3.55469 -3.51754,-3.55469 -0.25743,0 -0.46933,-0.1232 -0.47088,-0.27377 -0.006,-0.55825 -2.0097,-1.18632 -3.78325,-1.18573 -1.66469,5.4e-4 -1.9527,0.13199 -3.1887,1.4554 -1.10926,1.18769 -1.35873,1.72656 -1.35873,2.93487 0,1.66392 0.63559,2.52353 2.4457,3.30774 0.64766,0.28059 1.17757,0.62128 1.17757,0.75709 0,0.1358 0.48914,0.35514 1.08697,0.48743 0.59785,0.13229 1.08699,0.37309 1.08699,0.53509 0,0.16202 0.7337,0.40543 1.63046,0.54091 0.89676,0.13548 1.63047,0.40052 1.63047,0.58898 0,0.18847 0.50475,0.34266 1.12166,0.34266 0.61691,0 1.63595,0.26974 2.26454,0.5994 0.62858,0.32967 1.37655,0.71023 1.66215,0.8457 0.2856,0.13548 0.69322,0.56007 0.90582,0.94356 0.2126,0.38348 0.56884,0.86529 0.79166,1.07068 0.22282,0.20539 0.62948,0.90729 0.90369,1.55977 0.2742,0.65249 0.6218,1.18634 0.77243,1.18634 0.15064,0 0.27388,1.0677 0.27388,2.37267 0,1.30496 -0.13261,2.37267 -0.29469,2.37267 -0.1621,0 -0.51705,0.57087 -0.78878,1.2686 -0.71111,1.82584 -3.0953,4.03671 -5.16666,4.79107 -0.34874,0.127 -0.63407,0.37602 -0.63407,0.55337 0,0.42108 -10.76622,0.42156 -11.02453,5e-4 -0.10863,-0.17708 -1.27172,-0.43786 -2.58466,-0.57951 -1.83466,-0.19794 -2.52765,-0.13664 -2.99422,0.26487 -0.53033,0.45636 -0.68094,0.44368 -1.19126,-0.10026 z m -276.615046,-11.657 c -0.985608,-0.552 -4.645334,-2.65455 -8.1327244,-4.67233 -6.34070978,-3.66869 -6.34070978,-3.66869 -6.43518146,-19.21808 -0.0944717,-15.54938 -0.0944717,-15.54938 -2.62686554,-15.54938 -1.3928166,0 -2.5323938,-0.10381 -2.5323938,-0.23069 0,-0.12687 0.3665856,-0.82499 0.8146348,-1.55136 0.9591802,-1.55501 1.0914508,-1.78562 4.60194756,-8.023352 1.48452434,-2.637821 2.81310424,-4.672754 2.95239974,-4.522072 0.260001,0.281254 5.6187348,9.489904 7.3285061,12.593594 0.955166,1.73388 0.955166,1.73388 -1.7551042,1.73388 -2.7102694,0 -2.7102694,0 -2.7102694,13.84773 0,13.84773 0,13.84773 3.3515181,15.73448 1.8433355,1.0377 4.1282755,2.38086 5.0776455,2.98479 1.726126,1.09806 1.726126,1.09806 6.431337,-1.58972 4.705211,-2.68777 4.705211,-2.68777 4.614583,-7.43311 -0.09063,-4.74534 -0.09063,-4.74534 -2.15073,-4.85411 -2.060102,-0.10877 -2.060102,-0.10877 0.418184,-4.38031 8.447007,-14.55914 7.624382,-14.80438 7.526682,2.24382 -0.08754,15.27598 -0.08754,15.27598 -5.522438,18.44617 -10.3968,6.06448 -9.196789,5.59095 -11.251731,4.44005 z"
         id="path15" /></g></g></svg>
